<svg width="864" height="472" viewBox="0 0 864 472" fill="none" xmlns="http://www.w3.org/2000/svg">
<g filter="url(#filter0_d_1_485)">
<path d="M858.376 258.463C850.507 224.592 817.283 213.601 815.052 177.748C814.479 168.55 816.258 159.303 815.655 150.152C813.846 122.555 792.863 109.299 775.135 107.554C758.583 105.95 741.82 109.158 725.992 117.083C717.159 121.47 707.782 127.414 698.918 123.215C691.291 119.63 685.894 109.346 680.136 100.714C657.735 66.9842 623.637 53.6812 593.729 66.937C583.267 71.5601 572.775 79.2966 562.042 76.6549C552.696 74.3433 544.918 64.5784 537.2 55.9927C489.866 3.34669 427.005 -13.5887 371.139 11.2247C357.964 17.0743 345.151 25.0938 331.614 28.3017C305.445 34.5286 279.125 22.2634 252.835 17.2158C226.545 12.1682 196.577 16.5554 179.09 47.6429C170.498 62.9273 166.036 82.8346 158.468 99.4398C144.509 130.008 120.873 148.925 98.0198 157.935C69.9511 169.068 34.104 168.691 15.3514 208.506C0.789442 239.405 -0.115028 285.352 14.6881 315.968C32.7473 353.33 66.7855 360.358 96.6329 356.962C113.064 355.075 131.666 352.009 144.057 368.991C151.263 378.898 154.73 393.71 159.916 406.306C171.583 434.657 193.381 452.017 214.907 450.177C229.258 448.951 243.066 439.846 257.447 439.516C282.17 438.95 304.842 464.141 329.534 463.999C361.431 463.858 387.962 422.203 419.709 417.392C442.11 413.995 463.636 429.327 484.861 440.979C506.086 452.678 530.567 460.556 550.284 443.573C563.64 432.11 572.444 411.07 584.443 396.352C618.843 354.084 667.986 372.529 711.702 375.077C749.026 377.247 786.652 365.925 820.811 342.197C831.815 334.554 842.729 325.308 850.537 310.967C858.346 296.627 862.507 276.153 858.376 258.463Z" fill="white"/>
</g>
<defs>
<filter id="filter0_d_1_485" x="0" y="0" width="864" height="472" filterUnits="userSpaceOnUse" color-interpolation-filters="sRGB">
<feFlood flood-opacity="0" result="BackgroundImageFix"/>
<feColorMatrix in="SourceAlpha" type="matrix" values="0 0 0 0 0 0 0 0 0 0 0 0 0 0 0 0 0 0 127 0" result="hardAlpha"/>
<feOffset dy="4"/>
<feGaussianBlur stdDeviation="2"/>
<feComposite in2="hardAlpha" operator="out"/>
<feColorMatrix type="matrix" values="0 0 0 0 0 0 0 0 0 0 0 0 0 0 0 0 0 0 0.25 0"/>
<feBlend mode="normal" in2="BackgroundImageFix" result="effect1_dropShadow_1_485"/>
<feBlend mode="normal" in="SourceGraphic" in2="effect1_dropShadow_1_485" result="shape"/>
</filter>
</defs>
</svg>
