<svg width="371" height="179" viewBox="0 0 371 179" fill="none" xmlns="http://www.w3.org/2000/svg">
<path d="M335.054 87.9318C338.122 78.1287 355.216 81.2975 363.594 65.8804C369.089 56.0098 366.981 45.7433 366.273 42.1188C363.424 27.0141 351.791 12.7609 335.262 8.05805C312.908 1.39141 295.107 16.4632 292.14 18.9751C287.395 23.0549 283.585 28.0198 279.287 37.2497C278.427 39.0957 276.708 42.7877 274.727 48.0054C243.237 51.3106 207.145 52.9218 167.917 50.976C143.288 49.8389 120.133 47.1423 99.0948 44.0833C96.4394 35.9578 93.565 30.8751 89.7971 26.4247C87.2936 23.7612 71.9187 5.96799 48.6215 9.04538C31.6879 11.6421 17.7554 23.8731 12.6902 38.287C11.5777 41.9621 7.90305 51.7821 11.8397 62.3014C18.0608 78.5271 35.0534 78.0545 36.8575 88.3295C39.0748 102.541 7.37401 109.192 4.63538 130.83C2.89951 144.847 13.6384 159.733 26.282 166.669C45.399 177.07 64.8609 167.115 68.1566 165.505C80.1338 159.402 86.2444 149.818 91.1665 141.178C93.7878 137.157 95.7937 132.85 97.4962 128.551C126.55 125.01 159.6 123.18 195.76 123.996C223.415 124.745 249.292 127.062 272.463 130.366C272.783 130.964 272.8 131.571 273.112 131.866C277.015 141.172 281.255 151.683 292.406 159.572C295.508 161.915 313.167 174.482 333.607 166.929C347.135 161.998 360.132 148.881 360.351 134.906C361.26 113.016 330.882 101.713 335.054 87.9318Z" fill="white" stroke="#050505" stroke-width="7" stroke-miterlimit="10"/>
<path d="M101.884 95.881C101.404 96.041 101.018 96.121 100.724 96.121L99.6445 106.201L95.6445 106.601L93.3645 80.841C94.7778 80.3877 96.6445 79.9743 98.9645 79.601C101.311 79.2277 103.551 79.041 105.684 79.041C109.098 79.041 111.831 79.681 113.884 80.961C114.364 82.401 114.604 83.721 114.604 84.921C114.604 88.281 112.671 91.0543 108.804 93.241L115.524 106.001L112.724 107.561L101.884 95.881ZM106.884 86.001C106.884 84.1077 106.044 82.6543 104.364 81.641C103.724 81.641 103.004 81.7743 102.204 82.041L101.004 93.561C102.844 92.7343 104.284 91.6277 105.324 90.241C106.364 88.8277 106.884 87.4143 106.884 86.001ZM139.09 97.761C139.09 99.3877 138.957 100.748 138.69 101.841C138.424 102.908 137.944 103.854 137.25 104.681C135.917 106.228 133.33 107.001 129.49 107.001C125.677 107.001 122.717 106.134 120.61 104.401C120.157 102.161 119.93 99.9477 119.93 97.761C119.93 93.3343 120.757 89.3743 122.41 85.881C124.09 82.3877 126.037 79.9077 128.25 78.441C131.37 79.721 133.957 82.121 136.01 85.641C138.064 89.1343 139.09 93.1743 139.09 97.761ZM134.25 95.961C134.25 91.8543 133.57 88.3343 132.21 85.401C129.624 87.7743 127.597 90.521 126.13 93.641C124.69 96.761 123.97 99.8277 123.97 102.841C124.877 103.028 125.957 103.121 127.21 103.121C129.664 103.121 131.77 102.814 133.53 102.201C134.01 100.121 134.25 98.041 134.25 95.961ZM142.285 106.041L149.765 79.441L159.445 80.041L164.645 106.041L161.045 106.641L158.285 100.001L147.645 100.881L146.285 106.641L142.285 106.041ZM151.525 84.481L148.365 97.801L157.405 97.881L151.845 84.481H151.525ZM170.552 80.841C174.472 79.5877 178.179 78.961 181.672 78.961C185.192 78.961 188.059 79.4943 190.272 80.561C191.152 82.721 191.592 84.9743 191.592 87.321C191.592 90.4943 190.819 93.521 189.272 96.401C187.752 99.281 185.525 101.681 182.592 103.601C179.685 105.494 176.432 106.494 172.832 106.601L170.552 80.841ZM184.472 90.041C184.472 88.0943 184.179 86.361 183.592 84.841C183.032 83.321 182.219 82.2543 181.152 81.641C180.672 81.641 180.085 81.7343 179.392 81.921L177.192 103.241C179.592 102.254 181.405 100.534 182.632 98.081C183.859 95.601 184.472 92.921 184.472 90.041ZM223.564 106.641L217.844 85.361H217.524L213.164 106.041L209.564 106.641L200.884 86.921H200.644L200.004 106.041L196.004 106.241L197.884 80.041L207.564 79.641L211.604 98.681L216.284 79.441L225.964 80.041L227.164 106.041L223.564 106.641ZM231.582 106.041L239.062 79.441L248.742 80.041L253.942 106.041L250.342 106.641L247.582 100.001L236.942 100.881L235.582 106.641L231.582 106.041ZM240.822 84.481L237.662 97.801L246.702 97.881L241.142 84.481H240.822ZM259.849 80.841C263.582 79.641 267.355 79.041 271.169 79.041C274.982 79.041 277.916 79.681 279.969 80.961C280.449 82.401 280.689 83.7743 280.689 85.081C280.689 88.1477 279.422 90.721 276.889 92.801C274.356 94.8543 271.089 96.3343 267.089 97.241L266.129 106.201L262.129 106.601L259.849 80.841ZM272.969 86.241C272.969 84.1877 272.129 82.6543 270.449 81.641C269.969 81.641 269.382 81.7343 268.689 81.921L267.369 94.521C269.102 93.561 270.462 92.321 271.449 90.801C272.462 89.281 272.969 87.761 272.969 86.241Z" fill="black"/>
</svg>
