<svg width="301" height="103" viewBox="0 0 301 103" fill="none" xmlns="http://www.w3.org/2000/svg">
<g clip-path="url(#clip0_1_4522)">
<path d="M55.3393 63.2065C56.5709 62.5033 57.6383 61.5519 58.7467 60.6005C59.3625 60.0627 60.0193 59.525 60.7172 59.0699C62.2362 58.0772 64.2888 58.1185 65.4794 56.6294C67.3268 54.3956 65.972 50.3832 64.6994 48.1495C63.9194 46.7844 62.9341 45.6262 62.0309 44.3438C61.1688 43.1856 60.512 41.8619 59.6909 40.6623C58.0488 38.3045 55.2162 37.0222 52.4246 38.0563C49.4277 39.1732 48.3603 42.0687 48.4835 45.0471C48.5656 46.5776 48.6477 47.984 48.0319 49.4318C47.4161 50.8382 46.554 52.1619 46.1024 53.6511C45.2813 56.2985 45.0761 60.0213 46.9235 62.3792C48.3193 64.1579 50.6593 64.6129 52.753 64.1993C53.6972 64.0338 54.5593 63.6615 55.3393 63.2065Z" fill="black"/>
<path d="M64.6173 72.3067C65.8899 71.9758 67.491 71.5207 68.4762 70.5693C69.5436 69.5352 69.4205 67.9633 68.4352 66.9705C68.271 66.8051 68.1068 66.681 67.9015 66.5155C67.8194 66.3914 67.7373 66.3087 67.6552 66.226C65.5204 64.3645 62.7288 62.9167 59.8551 63.8268C57.3509 64.6127 55.2983 67.5497 56.8993 70.0729C58.5825 72.679 61.8667 73.0926 64.6173 72.3067Z" fill="black"/>
<path d="M75.5373 66.3501C76.9331 66.0192 78.6984 65.6469 79.8068 64.6542C80.9974 63.62 80.9563 61.8827 79.93 60.7244C79.7658 60.559 79.5605 60.3522 79.3963 60.2281C79.3142 60.104 79.2321 59.9799 79.1089 59.8971C76.851 57.7875 73.9363 56.0501 70.7752 56.8775C68.0247 57.622 65.6436 60.7244 67.2857 63.5373C68.9689 66.4742 72.4994 67.0534 75.5373 66.3501Z" fill="black"/>
<path d="M75.5784 53.8164C77.0563 54.0646 79.5605 54.3955 80.5048 52.865C81.3258 51.5413 79.7658 49.0593 78.9858 47.9425C77.9184 46.4533 76.5637 45.0883 74.7573 44.5919C71.5552 43.7232 68.1889 45.5846 67.6141 48.8525C67.1215 50.6312 68.312 52.079 69.872 52.6581C71.6373 53.32 73.731 53.5268 75.5784 53.8164Z" fill="black"/>
<path d="M68.0247 42.5236C70.0773 42.7718 72.0068 42.3168 73.6489 41.1172C73.9363 40.9103 74.0594 40.5794 74.1005 40.2485C74.1416 40.0417 74.1826 39.7935 74.1416 39.5039C74.1005 38.6766 73.5668 38.0975 72.9921 37.5597C72.2531 36.8565 71.5142 36.1947 70.6931 35.5742C69.2152 34.416 67.532 33.5886 65.6436 33.3818C63.9194 33.175 62.2362 33.8782 61.5794 35.5742C61.0046 37.1461 61.4151 39.0489 62.6057 40.2898C64.0015 41.7376 66.1773 42.2754 68.0247 42.5236Z" fill="black"/>
<path d="M222.425 63.2065C223.656 62.5033 224.724 61.5519 225.832 60.6005C226.448 60.0627 227.105 59.525 227.803 59.0699C229.322 58.0772 231.374 58.1185 232.565 56.6294C234.412 54.3956 233.057 50.3832 231.785 48.1495C231.005 46.7844 230.019 45.6262 229.116 44.3438C228.254 43.1856 227.597 41.8619 226.776 40.6623C225.134 38.3045 222.302 37.0222 219.51 38.0563C216.513 39.1732 215.446 42.0687 215.569 45.0471C215.651 46.5776 215.733 47.984 215.117 49.4318C214.501 50.8382 213.639 52.1619 213.188 53.6511C212.367 56.2985 212.161 60.0213 214.009 62.3792C215.405 64.1579 217.745 64.6129 219.838 64.1993C220.824 64.0338 221.645 63.6615 222.425 63.2065Z" fill="black"/>
<path d="M231.744 72.3067C233.016 71.9758 234.617 71.5207 235.603 70.5693C236.67 69.5352 236.547 67.9633 235.562 66.9705C235.397 66.8051 235.233 66.681 235.028 66.5155C234.946 66.3914 234.864 66.3087 234.782 66.226C232.647 64.3645 229.855 62.9167 226.982 63.8268C224.477 64.6127 222.425 67.5497 224.026 70.0729C225.709 72.679 228.952 73.0926 231.744 72.3067Z" fill="black"/>
<path d="M242.664 66.3501C244.06 66.0192 245.825 65.6469 246.933 64.6542C248.124 63.62 248.083 61.8827 247.056 60.7244C246.892 60.559 246.687 60.3522 246.523 60.2281C246.441 60.104 246.359 59.9799 246.235 59.8971C243.977 57.7875 241.063 56.0501 237.902 56.8775C235.151 57.622 232.77 60.7244 234.412 63.5373C236.095 66.4742 239.585 67.0534 242.664 66.3501Z" fill="black"/>
<path d="M242.664 53.8164C244.142 54.0646 246.646 54.3955 247.59 52.865C248.411 51.5413 246.851 49.0593 246.071 47.9425C245.004 46.4533 243.649 45.0883 241.843 44.5919C238.641 43.7232 235.274 45.5846 234.7 48.8525C234.207 50.6312 235.397 52.079 236.957 52.6581C238.723 53.32 240.816 53.5268 242.664 53.8164Z" fill="black"/>
<path d="M235.11 42.5236C237.163 42.7718 239.092 42.3168 240.734 41.1172C241.022 40.9103 241.145 40.5794 241.186 40.2485C241.227 40.0417 241.268 39.7935 241.227 39.5039C241.186 38.6766 240.652 38.0975 240.077 37.5597C239.339 36.8565 238.6 36.1947 237.779 35.5742C236.301 34.416 234.617 33.5886 232.729 33.3818C231.005 33.175 229.322 33.8782 228.665 35.5742C228.09 37.1461 228.501 39.0489 229.691 40.2898C231.087 41.7376 233.304 42.2754 235.11 42.5236Z" fill="black"/>
<path d="M10.3043 30.6519C11.4538 29.8246 12.4801 28.7905 13.4653 27.7564C14.0401 27.1772 14.6148 26.5568 15.2717 26.0604C16.7085 24.9435 18.7201 24.778 19.8285 23.2062C21.4707 20.807 19.7464 16.9186 18.3096 14.8503C17.4475 13.568 16.3391 12.4925 15.3127 11.3343C14.3685 10.2174 13.5885 8.97644 12.6443 7.85957C10.7969 5.6672 7.88215 4.63307 5.17266 5.9154C2.29895 7.28046 1.4779 10.2588 1.88843 13.2371C2.09369 14.7676 2.34001 16.1327 1.80632 17.6632C1.31368 19.1523 0.574732 20.5174 0.246309 22.0479C-0.328432 24.778 -0.205274 28.5009 1.80632 30.6519C3.36633 32.3066 5.70635 32.5548 7.80005 31.9343C8.78531 31.562 9.56532 31.1483 10.3043 30.6519Z" fill="black"/>
<path d="M20.3622 38.8424C21.5938 38.3874 23.1538 37.8082 24.057 36.7741C25.0012 35.6572 24.7549 34.1267 23.6875 33.1753C23.5233 33.0098 23.318 32.8857 23.1128 32.7617C23.0307 32.6789 22.9486 32.5548 22.8254 32.4721C20.5264 30.8175 17.6527 29.6179 14.8611 30.7761C12.439 31.7689 10.6327 34.9127 12.4801 37.2705C14.4096 39.7524 17.6938 39.8765 20.3622 38.8424Z" fill="black"/>
<path d="M30.7076 31.9342C32.0623 31.4792 33.8276 30.9414 34.8129 29.8659C35.9213 28.7077 35.716 27.0117 34.5665 25.9362C34.4023 25.7707 34.1971 25.6053 33.9918 25.4812C33.9097 25.3571 33.8276 25.2744 33.7044 25.1503C31.2823 23.2474 28.2033 21.7997 25.1244 22.9165C22.4559 23.8679 20.3212 27.2185 22.2096 29.8659C24.1802 32.6374 27.7518 32.927 30.7076 31.9342Z" fill="black"/>
<path d="M29.6402 19.4417C31.1181 19.5245 33.6634 19.6486 34.4844 18.0353C35.1823 16.6289 33.4171 14.3124 32.5139 13.2783C31.3234 11.8718 29.8455 10.6722 27.9981 10.3413C24.7549 9.76221 21.5528 11.9546 21.2654 15.2224C20.937 17.0012 22.2096 18.3662 23.8517 18.8212C25.6581 19.3176 27.7518 19.3176 29.6402 19.4417Z" fill="black"/>
<path d="M21.1422 8.89359C23.1949 8.97632 25.0833 8.31447 26.6433 6.99077C26.8896 6.74258 27.0128 6.41166 27.0128 6.08073C27.0539 5.87391 27.0539 5.62571 27.0128 5.33616C26.8896 4.50885 26.3149 4.01246 25.6991 3.51608C24.9191 2.89559 24.098 2.27511 23.2359 1.73736C21.6349 0.74459 19.9107 0.0413768 18.0222 1.13797e-05C16.298 -0.0413541 14.6559 0.785955 14.1632 2.56467C13.7117 4.21929 14.3275 6.03937 15.6001 7.15624C17.0369 8.43856 19.2538 8.81085 21.1422 8.89359Z" fill="black"/>
<path d="M275.752 30.6519C276.902 29.8246 277.928 28.7905 278.914 27.7564C279.488 27.1772 280.063 26.5568 280.72 26.0604C282.157 24.9435 284.168 24.778 285.277 23.2062C286.919 20.807 285.195 16.9186 283.758 14.8503C282.896 13.568 281.787 12.4925 280.761 11.3343C279.817 10.2174 279.037 8.97644 278.092 7.85957C276.245 5.6672 273.33 4.63307 270.621 5.9154C267.747 7.28046 266.926 10.2588 267.337 13.2371C267.542 14.7676 267.788 16.1327 267.254 17.6632C266.762 19.1523 266.023 20.5174 265.694 22.0479C265.12 24.778 265.243 28.5009 267.254 30.6519C268.815 32.3066 271.155 32.5548 273.248 31.9343C274.192 31.562 275.014 31.1483 275.752 30.6519Z" fill="black"/>
<path d="M285.81 38.8424C287.042 38.3874 288.602 37.8082 289.505 36.7741C290.449 35.6572 290.203 34.1267 289.136 33.1753C288.972 33.0098 288.766 32.8857 288.561 32.7617C288.479 32.6789 288.397 32.5548 288.274 32.4721C285.975 30.8175 283.101 29.6179 280.309 30.7761C277.887 31.7689 276.081 34.9127 277.928 37.2705C279.817 39.7524 283.101 39.8765 285.81 38.8424Z" fill="black"/>
<path d="M296.156 31.9342C297.511 31.4792 299.276 30.9414 300.261 29.8659C301.369 28.7077 301.164 27.0117 300.015 25.9362C299.851 25.7707 299.645 25.6053 299.44 25.4812C299.358 25.3571 299.276 25.2744 299.153 25.1503C296.731 23.2474 293.652 21.7997 290.573 22.9165C287.904 23.8679 285.769 27.2185 287.658 29.8659C289.628 32.6374 293.159 32.927 296.156 31.9342Z" fill="black"/>
<path d="M295.047 19.4417C296.525 19.5245 299.071 19.6486 299.892 18.0353C300.589 16.6289 298.824 14.3124 297.921 13.2783C296.731 11.8718 295.253 10.6722 293.405 10.3413C290.162 9.76221 286.96 11.9546 286.673 15.2224C286.344 17.0012 287.617 18.3662 289.259 18.8212C291.106 19.3176 293.2 19.3176 295.047 19.4417Z" fill="black"/>
<path d="M286.549 8.89359C288.602 8.97632 290.49 8.31447 292.05 6.99077C292.297 6.74258 292.42 6.41166 292.42 6.08073C292.461 5.87391 292.461 5.62571 292.42 5.33616C292.297 4.50885 291.722 4.01246 291.106 3.51608C290.326 2.89559 289.505 2.27511 288.643 1.73736C287.083 0.74459 285.318 0.0413768 283.429 1.13797e-05C281.705 -0.0413541 280.063 0.785955 279.57 2.56467C279.119 4.21929 279.735 6.03937 281.007 7.15624C282.485 8.43856 284.702 8.81085 286.549 8.89359Z" fill="black"/>
<path d="M108.626 94.1895C109.775 93.3622 110.802 92.3281 111.787 91.294C112.362 90.7148 112.937 90.0944 113.593 89.598C115.03 88.4811 117.042 88.3156 118.15 86.7438C119.792 84.3446 118.068 80.4562 116.631 78.3879C115.769 77.1056 114.661 76.0301 113.634 74.8719C112.69 73.755 111.91 72.514 110.966 71.3972C109.119 69.2048 106.204 68.1707 103.494 69.453C100.621 70.8181 99.7996 73.7964 100.21 76.7747C100.415 78.3052 100.662 79.6703 100.128 81.2008C99.6354 82.6899 98.8964 84.055 98.568 85.5855C97.9933 88.3156 98.1164 92.0385 100.128 94.1895C101.688 95.8442 104.028 96.0924 106.122 95.4719C107.066 95.1409 107.887 94.6859 108.626 94.1895Z" fill="black"/>
<path d="M118.684 102.421C119.916 101.966 121.476 101.387 122.379 100.353C123.323 99.2358 123.077 97.7053 122.009 96.7539C121.845 96.5885 121.64 96.4644 121.434 96.3403C121.352 96.2575 121.27 96.1334 121.147 96.0507C118.848 94.3961 115.974 93.1965 113.183 94.3547C110.761 95.3475 108.954 98.4913 110.802 100.849C112.731 103.331 115.974 103.414 118.684 102.421Z" fill="black"/>
<path d="M129.029 95.5133C130.384 95.0583 132.149 94.5205 133.135 93.445C134.243 92.2868 134.038 90.5908 132.888 89.5153C132.724 89.3498 132.519 89.1844 132.314 89.0603C132.231 88.9362 132.149 88.8535 132.026 88.7294C129.604 86.8265 126.525 85.3788 123.446 86.4956C120.778 87.447 118.643 90.7976 120.531 93.445C122.502 96.2165 126.032 96.4647 129.029 95.5133Z" fill="black"/>
<path d="M127.962 83.0208C129.44 83.1036 131.985 83.2277 132.806 81.6144C133.504 80.208 131.739 77.8915 130.836 76.8574C129.645 75.451 128.167 74.2514 126.32 73.9204C123.077 73.3413 119.874 75.5337 119.587 78.8016C119.259 80.5803 120.531 81.9453 122.173 82.4003C123.98 82.8554 126.073 82.8967 127.962 83.0208Z" fill="black"/>
<path d="M119.423 72.4312C121.476 72.5139 123.364 71.8521 124.924 70.5284C125.17 70.2802 125.293 69.9493 125.293 69.6183C125.335 69.4115 125.335 69.1633 125.293 68.8738C125.17 68.0464 124.596 67.5501 123.98 67.0537C123.2 66.4332 122.379 65.8127 121.517 65.275C119.957 64.2822 118.191 63.579 116.303 63.5376C114.579 63.4962 112.937 64.3236 112.444 66.1023C111.992 67.7569 112.608 69.577 113.881 70.6938C115.359 71.9762 117.576 72.3485 119.423 72.4312Z" fill="black"/>
<path d="M169.795 94.1895C170.944 93.3622 171.971 92.3281 172.956 91.294C173.531 90.7148 174.105 90.0944 174.762 89.598C176.199 88.4811 178.211 88.3156 179.319 86.7438C180.961 84.3446 179.237 80.4562 177.8 78.3879C176.938 77.1056 175.83 76.0301 174.803 74.8719C173.859 73.755 173.079 72.514 172.135 71.3972C170.288 69.2048 167.373 68.1707 164.663 69.453C161.79 70.8181 160.968 73.7964 161.379 76.7747C161.584 78.3052 161.831 79.6703 161.297 81.2008C160.804 82.6899 160.065 84.055 159.737 85.5855C159.162 88.3156 159.285 92.0385 161.297 94.1895C162.857 95.8442 165.197 96.0924 167.291 95.4719C168.276 95.1409 169.056 94.6859 169.795 94.1895Z" fill="black"/>
<path d="M179.853 102.421C181.084 101.966 182.644 101.387 183.548 100.353C184.492 99.2358 184.246 97.7053 183.178 96.7539C183.014 96.5885 182.809 96.4644 182.603 96.3403C182.521 96.2575 182.439 96.1334 182.316 96.0507C180.017 94.3961 177.143 93.1965 174.352 94.3547C171.93 95.3475 170.123 98.4913 171.971 100.849C173.9 103.331 177.184 103.414 179.853 102.421Z" fill="black"/>
<path d="M190.198 95.5133C191.553 95.0583 193.318 94.5205 194.303 93.445C195.412 92.2868 195.207 90.5908 194.057 89.5153C193.893 89.3498 193.688 89.1844 193.482 89.0603C193.4 88.9362 193.318 88.8535 193.195 88.7294C190.773 86.8265 187.694 85.3788 184.615 86.4956C181.947 87.447 179.812 90.7976 181.7 93.445C183.671 96.2165 187.242 96.4647 190.198 95.5133Z" fill="black"/>
<path d="M189.131 83.0208C190.609 83.1036 193.154 83.2277 193.975 81.6144C194.673 80.208 192.908 77.8915 192.005 76.8574C190.814 75.451 189.336 74.2514 187.489 73.9204C184.246 73.3413 181.043 75.5337 180.756 78.8016C180.428 80.5803 181.7 81.9453 183.342 82.4003C185.149 82.8554 187.283 82.8967 189.131 83.0208Z" fill="black"/>
<path d="M180.633 72.4312C182.686 72.5139 184.574 71.8521 186.134 70.5284C186.38 70.2802 186.503 69.9493 186.503 69.6183C186.544 69.4115 186.544 69.1633 186.503 68.8738C186.38 68.0464 185.806 67.5501 185.19 67.0537C184.41 66.4332 183.589 65.8127 182.727 65.275C181.167 64.2822 179.401 63.579 177.513 63.5376C175.789 63.4962 174.146 64.3236 173.654 66.1023C173.202 67.7569 173.818 69.577 175.091 70.6938C176.528 71.9762 178.744 72.3485 180.633 72.4312Z" fill="black"/>
</g>
<defs>
<clipPath id="clip0_1_4522">
<rect width="301" height="103" fill="white"/>
</clipPath>
</defs>
</svg>
