<svg width="46" height="41" viewBox="0 0 46 41" fill="none" xmlns="http://www.w3.org/2000/svg">
<path d="M32.6626 29.3853C32.0091 28.1289 31.1333 26.9645 30.2516 25.8408C29.7611 25.1888 29.2297 24.5308 28.8329 23.8094C27.9342 22.2269 28.0597 20.2124 26.6635 18.8895C24.5253 16.9195 20.4295 18.0668 18.1761 19.1913C16.7832 19.8601 15.5595 20.8024 14.2657 21.6515C13.0247 22.4253 11.6845 23.0188 10.4434 23.7927C8.00825 25.3056 6.56578 28.0414 7.44523 30.9071C8.38294 33.9472 11.2123 35.188 14.2187 35.2099C15.7628 35.2268 17.1491 35.1793 18.587 35.9275C19.9898 36.6292 21.2345 37.5567 22.7019 38.1018C25.321 39.0631 29.0229 39.4764 31.4408 37.795C33.3025 36.4891 33.8845 34.2091 33.5715 32.0479C33.3448 31.0194 33.0476 30.188 32.6626 29.3853Z" fill="white"/>
<path d="M42.2139 20.6093C41.9407 19.3251 41.5919 17.698 40.6984 16.6555C39.7289 15.5605 38.1788 15.5842 37.0838 16.5037C36.8965 16.6425 36.7442 16.8277 36.5918 17.013C36.4982 17.0824 36.3636 17.1458 36.264 17.2558C34.296 19.293 32.6957 21.9644 33.4406 24.8935C34.0748 27.4332 36.9262 29.6727 39.5251 28.1835C42.2587 26.6309 42.8537 23.3987 42.2139 20.6093Z" fill="white"/>
<path d="M36.8651 9.37824C36.6096 7.97215 36.3312 6.1479 35.4085 5.01823C34.4217 3.75479 32.7138 3.71409 31.4842 4.697C31.2969 4.83571 31.1036 5.01505 30.9513 5.20034C30.8167 5.26375 30.723 5.33311 30.5825 5.43715C28.3512 7.56053 26.4758 10.3994 27.1384 13.6069C27.6962 16.3844 30.7051 18.9787 33.5965 17.4905C36.6225 15.9389 37.4226 12.4461 36.8651 9.37824Z" fill="white"/>
<path d="M24.349 8.63857C24.6434 7.18792 25.1321 4.68692 23.6537 3.64245C22.3622 2.74959 19.816 4.16348 18.6628 4.90858C17.0998 5.88453 15.7002 7.17461 15.1071 8.95522C14.0677 12.0814 15.7769 15.5655 18.9695 16.3197C20.6825 16.9005 22.2164 15.8373 22.9028 14.2777C23.6537 12.5615 23.9547 10.4895 24.349 8.63857Z" fill="white"/>
<path d="M12.6886 15.5317C13.0656 13.5122 12.6822 11.5483 11.5965 9.81416C11.3863 9.53472 11.0765 9.36526 10.7491 9.31768C10.5503 9.24732 10.3047 9.21163 10.0122 9.21063C9.17579 9.21356 8.60193 9.71096 8.02217 10.249C7.29599 10.9317 6.5639 11.655 5.90779 12.4308C4.69514 13.8725 3.75133 15.4777 3.43889 17.3406C3.15005 19.041 3.73267 20.785 5.42208 21.5282C6.99458 22.213 8.88428 21.8653 10.1725 20.7664C11.6481 19.5289 12.3353 17.3886 12.6886 15.5317Z" fill="white"/>
</svg>
