<svg width="371" height="179" viewBox="0 0 371 179" fill="none" xmlns="http://www.w3.org/2000/svg">
<path d="M335.054 87.9317C338.122 78.1286 355.216 81.2973 363.594 65.8803C369.089 56.0097 366.981 45.7432 366.273 42.1187C363.424 27.0139 351.791 12.7608 335.262 8.05793C312.908 1.39129 295.107 16.463 292.14 18.975C287.395 23.0548 283.585 28.0197 279.287 37.2496C278.427 39.0956 276.708 42.7876 274.727 48.0052C243.237 51.3105 207.145 52.9216 167.917 50.9758C143.288 49.8387 120.133 47.1422 99.0948 44.0832C96.4394 35.9576 93.565 30.875 89.7971 26.4246C87.2936 23.7611 71.9187 5.96787 48.6215 9.04525C31.6879 11.642 17.7554 23.873 12.6902 38.2869C11.5777 41.962 7.90305 51.7819 11.8397 62.3013C18.0608 78.527 35.0534 78.0544 36.8575 88.3294C39.0748 102.541 7.37401 109.192 4.63538 130.83C2.89951 144.847 13.6384 159.733 26.282 166.669C45.399 177.07 64.8609 167.115 68.1566 165.505C80.1338 159.402 86.2444 149.818 91.1665 141.178C93.7878 137.157 95.7937 132.85 97.4962 128.551C126.55 125.01 159.6 123.179 195.76 123.996C223.415 124.745 249.292 127.062 272.463 130.366C272.783 130.964 272.8 131.571 273.112 131.866C277.015 141.172 281.255 151.682 292.406 159.572C295.508 161.915 313.167 174.482 333.607 166.929C347.135 161.997 360.132 148.881 360.351 134.906C361.26 113.016 330.882 101.713 335.054 87.9317Z" fill="white" stroke="#050505" stroke-width="7" stroke-miterlimit="10"/>
<path d="M56.631 88.4411C56.631 84.6811 58.631 81.2145 62.631 78.0411L69.951 82.9211C66.6444 85.0011 64.991 87.2011 64.991 89.5211C64.991 90.5078 65.3244 91.5478 65.991 92.6411C66.6577 93.7345 67.3244 94.8145 67.991 95.8811C68.6844 96.9478 69.031 97.9478 69.031 98.8811C69.031 102.748 66.3644 105.734 61.031 107.841L59.111 105.241C60.4177 104.521 61.3244 103.828 61.831 103.161C62.3377 102.494 62.591 101.761 62.591 100.961C62.591 100.161 62.271 99.2678 61.631 98.2811C61.0177 97.2678 60.3377 96.3478 59.591 95.5211C58.871 94.6945 58.191 93.6411 57.551 92.3611C56.9377 91.0811 56.631 89.7745 56.631 88.4411ZM92.4176 106.681L91.4976 96.2011L83.0576 96.8811L82.0976 106.201L78.0976 106.601L75.8176 80.0411L84.9376 79.4411L83.4176 93.8011L91.2976 93.8811L90.1376 80.1211L99.2576 79.5211L96.4176 106.281L92.4176 106.681ZM108.84 106.601L106.56 80.0411L116.08 79.4411L113.24 106.201L108.84 106.601ZM123.786 80.8411C127.706 79.6411 131.386 79.0411 134.826 79.0411C138.293 79.0411 141.053 79.6811 143.106 80.9611C143.56 82.3211 143.786 83.6278 143.786 84.8811C143.786 87.6811 142.586 89.9745 140.186 91.7611C141.706 92.9345 142.893 94.2678 143.746 95.7611C144.626 97.2545 145.066 98.6411 145.066 99.9211C145.066 102.028 144.093 103.748 142.146 105.081C140.2 106.414 137.16 107.081 133.026 107.081C130.68 107.081 128.36 106.921 126.066 106.601L123.786 80.8411ZM130.346 103.641C131.813 104.041 133.213 104.241 134.546 104.241C135.88 104.241 136.76 104.161 137.186 104.001C138.12 102.134 138.586 100.254 138.586 98.3611C138.586 96.4411 138.146 94.8011 137.266 93.4411C135.666 94.1611 133.653 94.8011 131.226 95.3611L130.346 103.641ZM137.306 86.2811C137.306 85.4278 137.12 84.5611 136.746 83.6811C136.373 82.7745 135.853 82.0945 135.186 81.6411C134.573 81.6411 133.72 81.8011 132.626 82.1211L131.466 93.0811C133.253 92.3611 134.666 91.3745 135.706 90.1211C136.773 88.8411 137.306 87.5611 137.306 86.2811ZM149.152 106.041L156.632 79.4411L166.312 80.0411L171.512 106.041L167.912 106.641L165.152 100.001L154.512 100.881L153.152 106.641L149.152 106.041ZM158.392 84.4811L155.232 97.8011L164.272 97.8811L158.712 84.4811H158.392ZM199.179 79.6411L197.459 106.041L193.859 106.641L180.899 85.2011H180.579L180.699 106.041L176.699 106.241L177.779 80.0411L187.459 79.4411L194.459 99.4011H194.779L195.179 79.8411L199.179 79.6411ZM222.754 97.7611C222.754 99.3878 222.621 100.748 222.354 101.841C222.088 102.908 221.608 103.854 220.914 104.681C219.581 106.228 216.994 107.001 213.154 107.001C209.341 107.001 206.381 106.134 204.274 104.401C203.821 102.161 203.594 99.9478 203.594 97.7611C203.594 93.3345 204.421 89.3745 206.074 85.8811C207.754 82.3878 209.701 79.9078 211.914 78.4411C215.034 79.7211 217.621 82.1211 219.674 85.6411C221.728 89.1345 222.754 93.1745 222.754 97.7611ZM217.914 95.9611C217.914 91.8545 217.234 88.3345 215.874 85.4011C213.288 87.7745 211.261 90.5211 209.794 93.6411C208.354 96.7611 207.634 99.8278 207.634 102.841C208.541 103.028 209.621 103.121 210.874 103.121C213.328 103.121 215.434 102.814 217.194 102.201C217.674 100.121 217.914 98.0411 217.914 95.9611ZM255.509 106.641L249.789 85.3611H249.469L245.109 106.041L241.509 106.641L232.829 86.9211H232.589L231.949 106.041L227.949 106.241L229.829 80.0411L239.509 79.6411L243.549 98.6811L248.229 79.4411L257.909 80.0411L259.109 106.041L255.509 106.641ZM268.527 106.601L266.247 80.0411L275.767 79.4411L272.927 106.201L268.527 106.601ZM290.234 103.121C293.034 103.121 295.714 102.641 298.274 101.681L299.634 106.001C297.474 106.668 295.274 107.001 293.034 107.001C290.794 107.001 288.794 106.761 287.034 106.281C285.3 105.801 283.967 105.174 283.034 104.401C282.58 102.161 282.354 99.9478 282.354 97.7611C282.354 93.3078 283.194 89.2678 284.874 85.6411C286.554 82.0145 288.487 79.4811 290.674 78.0411L298.394 82.9211C294.714 85.2678 291.794 88.2545 289.634 91.8811C287.474 95.5078 286.394 99.1611 286.394 102.841C287.541 103.028 288.821 103.121 290.234 103.121ZM301.592 88.4411C301.592 84.6811 303.592 81.2145 307.592 78.0411L314.912 82.9211C311.605 85.0011 309.952 87.2011 309.952 89.5211C309.952 90.5078 310.285 91.5478 310.952 92.6411C311.619 93.7345 312.285 94.8145 312.952 95.8811C313.645 96.9478 313.992 97.9478 313.992 98.8811C313.992 102.748 311.325 105.734 305.992 107.841L304.072 105.241C305.379 104.521 306.285 103.828 306.792 103.161C307.299 102.494 307.552 101.761 307.552 100.961C307.552 100.161 307.232 99.2678 306.592 98.2811C305.979 97.2678 305.299 96.3478 304.552 95.5211C303.832 94.6945 303.152 93.6411 302.512 92.3611C301.899 91.0811 301.592 89.7745 301.592 88.4411Z" fill="black"/>
</svg>
