<svg width="371" height="179" viewBox="0 0 371 179" fill="none" xmlns="http://www.w3.org/2000/svg">
<path d="M335.054 87.9317C338.122 78.1286 355.216 81.2974 363.594 65.8804C369.089 56.0098 366.981 45.7432 366.273 42.1188C363.424 27.014 351.791 12.7608 335.262 8.05799C312.908 1.39135 295.107 16.4631 292.14 18.9751C287.395 23.0549 283.585 28.0197 279.287 37.2497C278.427 39.0957 276.708 42.7877 274.727 48.0053C243.237 51.3105 207.145 52.9217 167.917 50.9759C143.288 49.8388 120.133 47.1423 99.0948 44.0832C96.4394 35.9577 93.565 30.8751 89.7971 26.4247C87.2936 23.7612 71.9187 5.96793 48.6215 9.04532C31.6879 11.642 17.7554 23.8731 12.6902 38.2869C11.5777 41.962 7.90305 51.782 11.8397 62.3013C18.0608 78.5271 35.0534 78.0545 36.8575 88.3294C39.0748 102.541 7.37401 109.192 4.63538 130.83C2.89951 144.847 13.6384 159.733 26.282 166.669C45.399 177.07 64.8609 167.115 68.1566 165.505C80.1338 159.402 86.2444 149.818 91.1665 141.178C93.7878 137.157 95.7937 132.85 97.4962 128.551C126.55 125.01 159.6 123.179 195.76 123.996C223.415 124.745 249.292 127.062 272.463 130.366C272.783 130.964 272.8 131.571 273.112 131.866C277.015 141.172 281.255 151.682 292.406 159.572C295.508 161.915 313.167 174.482 333.607 166.929C347.135 161.997 360.132 148.881 360.351 134.906C361.26 113.016 330.882 101.713 335.054 87.9317Z" fill="white" stroke="#050505" stroke-width="7" stroke-miterlimit="10"/>
<path d="M98.1451 97.7611C98.1451 99.3878 98.0118 100.748 97.7451 101.841C97.4784 102.908 96.9984 103.854 96.3051 104.681C94.9718 106.228 92.3851 107.001 88.5451 107.001C84.7318 107.001 81.7717 106.134 79.6651 104.401C79.2117 102.161 78.9851 99.9478 78.9851 97.7611C78.9851 93.3345 79.8117 89.3745 81.4651 85.8811C83.1451 82.3878 85.0917 79.9078 87.3051 78.4411C90.4251 79.7211 93.0118 82.1211 95.0651 85.6411C97.1184 89.1345 98.1451 93.1745 98.1451 97.7611ZM93.3051 95.9611C93.3051 91.8545 92.6251 88.3345 91.2651 85.4011C88.6784 87.7745 86.6518 90.5211 85.1851 93.6411C83.7451 96.7611 83.0251 99.8278 83.0251 102.841C83.9318 103.028 85.0118 103.121 86.2651 103.121C88.7184 103.121 90.8251 102.814 92.5851 102.201C93.0651 100.121 93.3051 98.0411 93.3051 95.9611ZM113.82 107.001C111.446 107.001 109.473 106.268 107.9 104.801C106.353 103.334 105.406 100.988 105.06 97.7611L103.14 80.0411L112.66 79.4411C111.566 92.2945 111.02 98.9211 111.02 99.3211C111.02 102.361 112.473 103.881 115.38 103.881C116.713 103.881 117.846 103.481 118.78 102.681C119.713 101.854 120.193 100.428 120.22 98.4011L120.58 79.8411L124.58 79.6411L123.38 98.4411C123.033 104.148 119.846 107.001 113.82 107.001ZM140.431 95.8811C139.951 96.0411 139.565 96.1211 139.271 96.1211L138.191 106.201L134.191 106.601L131.911 80.8411C133.325 80.3878 135.191 79.9745 137.511 79.6011C139.858 79.2278 142.098 79.0411 144.231 79.0411C147.645 79.0411 150.378 79.6811 152.431 80.9611C152.911 82.4011 153.151 83.7211 153.151 84.9211C153.151 88.2811 151.218 91.0545 147.351 93.2411L154.071 106.001L151.271 107.561L140.431 95.8811ZM145.431 86.0011C145.431 84.1078 144.591 82.6545 142.911 81.6411C142.271 81.6411 141.551 81.7745 140.751 82.0411L139.551 93.5611C141.391 92.7345 142.831 91.6278 143.871 90.2411C144.911 88.8278 145.431 87.4145 145.431 86.0011ZM177.829 79.4411L181.069 99.5211H181.429L187.229 79.4411L190.829 80.4011L182.149 106.041L178.549 106.641L168.669 80.5211L177.829 79.4411ZM198.215 106.601L195.935 80.0411L205.455 79.4411L202.615 106.201L198.215 106.601ZM211.201 88.4411C211.201 84.6811 213.201 81.2145 217.201 78.0411L224.521 82.9211C221.215 85.0011 219.561 87.2011 219.561 89.5211C219.561 90.5078 219.895 91.5478 220.561 92.6411C221.228 93.7345 221.895 94.8145 222.561 95.8811C223.255 96.9478 223.601 97.9478 223.601 98.8811C223.601 102.748 220.935 105.734 215.601 107.841L213.681 105.241C214.988 104.521 215.895 103.828 216.401 103.161C216.908 102.494 217.161 101.761 217.161 100.961C217.161 100.161 216.841 99.2678 216.201 98.2811C215.588 97.2678 214.908 96.3478 214.161 95.5211C213.441 94.6945 212.761 93.6411 212.121 92.3611C211.508 91.0811 211.201 89.7745 211.201 88.4411ZM232.668 106.601L230.388 80.0411L239.908 79.4411L237.068 106.201L232.668 106.601ZM265.254 97.7611C265.254 99.3878 265.121 100.748 264.854 101.841C264.588 102.908 264.108 103.854 263.414 104.681C262.081 106.228 259.494 107.001 255.654 107.001C251.841 107.001 248.881 106.134 246.774 104.401C246.321 102.161 246.094 99.9478 246.094 97.7611C246.094 93.3345 246.921 89.3745 248.574 85.8811C250.254 82.3878 252.201 79.9078 254.414 78.4411C257.534 79.7211 260.121 82.1211 262.174 85.6411C264.228 89.1345 265.254 93.1745 265.254 97.7611ZM260.414 95.9611C260.414 91.8545 259.734 88.3345 258.374 85.4011C255.788 87.7745 253.761 90.5211 252.294 93.6411C250.854 96.7611 250.134 99.8278 250.134 102.841C251.041 103.028 252.121 103.121 253.374 103.121C255.828 103.121 257.934 102.814 259.694 102.201C260.174 100.121 260.414 98.0411 260.414 95.9611ZM292.929 79.6411L291.209 106.041L287.609 106.641L274.649 85.2011H274.329L274.449 106.041L270.449 106.241L271.529 80.0411L281.209 79.4411L288.209 99.4011H288.529L288.929 79.8411L292.929 79.6411Z" fill="black"/>
</svg>
